<svg width="40" height="40" viewBox="0 0 40 40" fill="none" xmlns="http://www.w3.org/2000/svg">
<path d="M40 20C40 31.0413 31.0413 40 20 40C8.95868 40 0 31.0413 0 20C0 8.95867 8.95868 0 20 0C31.0413 0 40 8.95867 40 20Z" fill="white"/>
<path d="M37.1575 20.0005C37.1575 29.4551 29.4881 37.1576 20.0005 37.1576C10.5129 37.1576 2.84344 29.4881 2.84344 20.0005C2.84344 10.5129 10.5129 2.84351 20.0005 2.84351C29.4881 2.84351 37.1575 10.546 37.1575 20.0005Z" fill="#ED1D24"/>
<path d="M30.347 26.9756C30.347 27.6698 29.785 28.2318 29.0908 28.2318C28.3966 28.2318 27.8346 27.6698 27.8346 26.9756C27.8346 26.2813 28.3966 25.7194 29.0908 25.7194C29.8181 25.7194 30.347 26.2813 30.347 26.9756Z" fill="white"/>
<path d="M14.8766 27.6691C13.5542 26.2806 14.579 23.6029 14.8104 21.355C14.5129 21.6525 11.703 28.231 9.12449 28.231C9.09143 28.231 9.02532 28.231 8.99226 28.231C6.64516 27.9996 6.94268 24.76 7.66995 22.8095H11.4385C10.2815 26.0162 11.8683 24.6938 12.9592 22.6773C15.141 18.2476 15.1741 18.1484 17.5542 11.4707H21.7195C20.4964 15.2724 19.4385 18.6773 18.9427 22.6112C18.9427 22.7434 19.0088 22.9087 19.1741 22.8426C20.0336 22.7104 24.6947 12.198 25.1245 11.4707H29.2898C29.2898 11.4707 24.86 23.7021 25.5873 24.8591C25.9509 25.5203 26.4468 24.2641 26.9096 23.7682L27.5708 24.4294C26.3476 25.7848 24.9592 28.2641 23.0088 28.2641C22.8435 28.2641 22.7113 28.231 22.546 28.231C22.2485 28.1649 21.9509 27.9996 21.7526 27.8013C19.5047 25.8509 23.5708 18.5781 23.141 18.1153C23.0088 18.1153 22.8766 18.479 22.6452 18.9748C21.422 21.5203 18.579 28.2641 16.2319 28.2641C15.8352 28.231 15.2732 28.0988 14.8766 27.6691Z" fill="white"/>
</svg>
