<svg width="35" height="35" viewBox="0 0 35 35" fill="none" xmlns="http://www.w3.org/2000/svg">
<path d="M0 6.5625C0 2.93813 2.93813 0 6.5625 0H28.4375C32.0619 0 35 2.93813 35 6.5625V28.4375C35 32.0619 32.0619 35 28.4375 35H6.5625C2.93813 35 0 32.0619 0 28.4375V6.5625Z" fill="#78BD20"/>
<path d="M28.3531 9.37512C28.8777 6.50012 28.0705 4.50012 24.761 4.50012H14.4691L13.5005 9.54179H22.2586C22.7833 9.54179 22.9448 9.83346 22.8641 10.4585L21.734 16.4585H16.2853L17.0925 12.2918L4.50012 18.5418H13.8637L13.0565 22.7085L21.3304 18.6251L20.2406 24.5418C20.0792 25.1251 19.7967 25.4168 19.1509 25.4168H10.4734L9.54516 30.5001H19.8774C23.1466 30.5001 24.761 28.5001 25.2453 25.6251L28.3531 9.37512Z" fill="black"/>
</svg>
